<svg
   xmlns:dc="http://purl.org/dc/elements/1.1/"
   xmlns:cc="http://creativecommons.org/ns#"
   xmlns:rdf="http://www.w3.org/1999/02/22-rdf-syntax-ns#"
   xmlns:svg="http://www.w3.org/2000/svg"
   xmlns="http://www.w3.org/2000/svg"
   xmlns:sodipodi="http://sodipodi.sourceforge.net/DTD/sodipodi-0.dtd"
   xmlns:inkscape="http://www.inkscape.org/namespaces/inkscape"
   width="208.84348"
   height="23.377371"
   viewBox="0 0 55.256503 6.1852628"
   version="1.1"
   id="svg390"
   inkscape:version="0.92.0 r15299"
   sodipodi:docname="general assembly.svg">
  <defs
     id="defs384" />
  <sodipodi:namedview
     id="base"
     pagecolor="#ffffff"
     bordercolor="#666666"
     borderopacity="1.0"
     inkscape:pageopacity="0.0"
     inkscape:pageshadow="2"
     inkscape:zoom="4.3157477"
     inkscape:cx="103.92174"
     inkscape:cy="11.188687"
     inkscape:document-units="mm"
     inkscape:current-layer="layer1"
     showgrid="false"
     fit-margin-top="0"
     fit-margin-left="0"
     fit-margin-right="0"
     fit-margin-bottom="0"
     units="px"
     inkscape:window-width="1280"
     inkscape:window-height="744"
     inkscape:window-x="-4"
     inkscape:window-y="-4"
     inkscape:window-maximized="1" />
  <metadata
     id="metadata387">
    <rdf:RDF>
      <cc:Work
         rdf:about="">
        <dc:format>image/svg+xml</dc:format>
        <dc:type
           rdf:resource="http://purl.org/dc/dcmitype/StillImage" />
        <dc:title></dc:title>
      </cc:Work>
    </rdf:RDF>
  </metadata>
  <g
     inkscape:label="Layer 1"
     inkscape:groupmode="layer"
     id="layer1"
     transform="translate(-63.97428,-166.01913)">
    <g
       id="g425"
       transform="translate(0.13229143,-0.13228821)">
      <path
         d="m 71.72398,166.91392 c -0.23742,0.25541 -0.35666,0.59549 -0.35666,1.01953 v 2.67511 c 0,0.45015 0.11007,0.7874 0.3295,1.01177 0.21978,0.22507 0.57008,0.33761 1.05057,0.33761 0.42933,0 0.76129,-0.11325 0.9966,-0.34079 0.23495,-0.22789 0.35242,-0.56127 0.35242,-1.00083 v -1.67887 H 72.7936 v 0.91229 h 0.30692 v 0.8202 c 0,0.0871 -0.0321,0.1577 -0.0974,0.21097 -0.0649,0.0536 -0.1584,0.0804 -0.25823,0.0804 -0.12947,0 -0.24765,-0.0332 -0.28293,-0.0998 -0.0346,-0.066 -0.0519,-0.13546 -0.0519,-0.20672 v -2.72133 c 0,-0.0356 0.005,-0.078 0.0148,-0.12665 0.01,-0.0487 0.0275,-0.0931 0.0526,-0.13406 0.0251,-0.0409 0.0589,-0.0755 0.10125,-0.10371 0.0423,-0.0279 0.0988,-0.0416 0.16863,-0.0416 0.10513,0 0.18838,0.0522 0.25118,0.15699 0.0624,0.10442 0.0963,0.236 0.1016,0.39475 l 1.01176,-0.17638 c 0.0155,-0.19438 -0.001,-0.37536 -0.0501,-0.54469 -0.0487,-0.16793 -0.13018,-0.31398 -0.24518,-0.43639 -0.11466,-0.12312 -0.26071,-0.21872 -0.43709,-0.28787 -0.17639,-0.0688 -0.38453,-0.10336 -0.62442,-0.10336 -0.45015,0 -0.79375,0.12771 -1.03117,0.38347 m 5.26274,4.99816 v -0.99695 h -1.40335 v -1.21074 h 1.22696 v -0.99695 h -1.22696 v -1.13418 h 1.40335 v -0.9966 h -2.44581 v 5.33542 z m 2.2613,-2.56682 -0.98883,-2.7686 h -0.91264 v 5.33542 h 1.04281 v -2.81482 h 0.0381 l 0.99237,2.81482 h 0.88582 v -5.33542 h -1.01953 v 2.7686 z m 4.06295,2.56682 v -0.99695 h -1.40335 v -1.21074 h 1.22696 v -0.99695 h -1.22696 v -1.13418 h 1.40335 v -0.9966 h -2.44546 v 5.33542 z m 0.38276,-5.33542 v 5.33542 h 1.04281 v -2.07787 h 0.20673 l 0.62865,2.07787 h 1.06539 l -0.76624,-2.31529 c 0.19932,-0.13793 0.34749,-0.32173 0.4445,-0.55209 0.0974,-0.23001 0.14605,-0.52635 0.14605,-0.889 0,-0.29175 -0.0377,-0.53799 -0.11147,-0.73978 -0.0741,-0.20179 -0.1778,-0.36583 -0.3101,-0.49036 -0.13335,-0.12523 -0.29174,-0.21484 -0.47589,-0.26846 -0.1838,-0.0536 -0.38594,-0.0804 -0.60537,-0.0804 z m 1.23472,0.9966 c 0.15805,0 0.28716,0.0469 0.38665,0.14147 0.0998,0.0949 0.14957,0.24447 0.14957,0.44873 0,0.13758 -0.0152,0.24906 -0.0459,0.33337 -0.031,0.0843 -0.0727,0.15205 -0.12664,0.2032 -0.0536,0.0512 -0.11395,0.0854 -0.17992,0.10372 -0.067,0.0176 -0.13829,0.0265 -0.21484,0.0265 h -0.16087 v -1.25695 z m 3.87879,4.33882 h 1.09608 l -1.01952,-5.33542 h -1.27247 l -1.01212,5.33542 h 1.10384 l 0.16122,-1.04282 h 0.78175 z m -0.57502,-3.95605 h 0.0459 l 0.115,1.08126 0.0998,0.85055 h -0.48295 l 0.10724,-0.85055 z m 4.38467,3.95605 v -0.99695 h -1.403 v -4.33847 h -1.0421 v 5.33542 z m 3.60292,0 h 1.09608 L 96.2963,166.5767 h -1.27247 l -1.01212,5.33542 h 1.1042 l 0.16087,-1.04282 h 0.78175 z m -0.57503,-3.95605 h 0.0459 l 0.11501,1.08126 0.0998,0.85055 h -0.4826 l 0.10689,-0.85055 z m 4.55719,1.83656 c -0.0226,-0.16122 -0.0706,-0.30586 -0.14429,-0.43321 -0.0744,-0.12771 -0.18203,-0.24554 -0.32491,-0.35278 -0.14252,-0.1076 -0.33584,-0.20955 -0.57961,-0.30657 -0.14253,-0.0564 -0.25365,-0.10865 -0.33232,-0.15734 -0.0787,-0.0483 -0.13829,-0.0984 -0.17921,-0.14957 -0.0406,-0.0512 -0.066,-0.10443 -0.0765,-0.16087 -0.01,-0.0561 -0.0152,-0.11994 -0.0152,-0.19121 0,-0.0564 0.004,-0.11535 0.0116,-0.17709 0.008,-0.0607 0.0226,-0.11606 0.0455,-0.16475 0.0229,-0.048 0.0543,-0.0889 0.0945,-0.12241 0.0406,-0.0332 0.096,-0.0494 0.16687,-0.0494 0.0755,0 0.13476,0.0148 0.1778,0.0459 0.0427,0.0307 0.0776,0.0727 0.10265,0.12594 0.0251,0.054 0.0413,0.11395 0.049,0.18027 0.008,0.0667 0.0116,0.13829 0.0116,0.21484 l 1.02729,-0.2226 c 0,-0.14781 -0.0208,-0.30092 -0.0617,-0.45967 -0.0409,-0.1584 -0.11147,-0.30303 -0.2106,-0.43321 -0.0998,-0.12982 -0.23672,-0.23742 -0.40993,-0.32173 -0.17392,-0.0843 -0.3937,-0.12665 -0.65934,-0.12665 -0.25048,0 -0.46391,0.0385 -0.6403,0.11501 -0.17638,0.0762 -0.31961,0.18062 -0.42933,0.31362 -0.10971,0.13264 -0.1905,0.2921 -0.2413,0.47801 -0.0511,0.18662 -0.0765,0.38947 -0.0765,0.60854 0,0.17357 0.0124,0.33267 0.0381,0.47872 0.0254,0.14499 0.0804,0.28293 0.16475,0.41275 0.0847,0.13018 0.20567,0.25259 0.36407,0.36759 0.15875,0.11466 0.3683,0.22578 0.629,0.33267 0.0967,0.0409 0.1785,0.0804 0.24518,0.11854 0.066,0.0385 0.11853,0.0832 0.15698,0.13441 0.0385,0.0504 0.0653,0.11183 0.0804,0.18344 0.0155,0.0713 0.0233,0.16051 0.0233,0.26741 0,0.0765 -0.004,0.1531 -0.0116,0.23001 -0.008,0.0765 -0.0226,0.14322 -0.0452,0.19896 -0.0233,0.0564 -0.0561,0.10196 -0.0991,0.13794 -0.0427,0.0356 -0.1023,0.0533 -0.17744,0.0533 -0.13159,0 -0.2219,-0.0487 -0.26953,-0.14535 -0.048,-0.0974 -0.0772,-0.24306 -0.0871,-0.43709 l -1.05057,0.19897 c 0,0.18944 0.0258,0.36759 0.0769,0.53446 0.0508,0.16757 0.13123,0.31397 0.24165,0.43991 0.10937,0.12665 0.25259,0.22543 0.42933,0.29775 0.17604,0.0716 0.387,0.10795 0.63218,0.10795 0.27094,0 0.4953,-0.0381 0.67451,-0.11466 0.17886,-0.0772 0.32103,-0.1852 0.42545,-0.32596 0.10478,-0.14041 0.17886,-0.3108 0.22261,-0.51012 0.043,-0.19897 0.0653,-0.42157 0.0653,-0.6671 0,-0.20426 -0.0116,-0.38665 -0.0349,-0.54751 m 3.08151,0 c -0.0226,-0.16122 -0.0709,-0.30586 -0.14464,-0.43321 -0.0737,-0.12771 -0.18203,-0.24554 -0.3242,-0.35278 -0.14252,-0.1076 -0.33585,-0.20955 -0.57997,-0.30657 -0.14287,-0.0564 -0.25294,-0.10865 -0.33232,-0.15734 -0.0787,-0.0483 -0.13828,-0.0984 -0.17921,-0.14957 -0.0409,-0.0512 -0.066,-0.10443 -0.0765,-0.16087 -0.01,-0.0561 -0.0148,-0.11994 -0.0148,-0.19121 0,-0.0564 0.004,-0.11535 0.0116,-0.17709 0.007,-0.0607 0.0219,-0.11606 0.0451,-0.16475 0.0226,-0.048 0.0543,-0.0889 0.0949,-0.12241 0.0402,-0.0332 0.0959,-0.0494 0.16686,-0.0494 0.0751,0 0.13476,0.0148 0.1778,0.0459 0.0427,0.0307 0.0769,0.0727 0.10195,0.12594 0.0251,0.054 0.042,0.11395 0.0498,0.18027 0.007,0.0667 0.0109,0.13829 0.0109,0.21484 l 1.02729,-0.2226 c 0,-0.14781 -0.0201,-0.30092 -0.061,-0.45967 -0.0409,-0.1584 -0.11148,-0.30303 -0.21096,-0.43321 -0.0995,-0.12982 -0.23671,-0.23742 -0.41028,-0.32173 -0.17357,-0.0843 -0.3937,-0.12665 -0.65899,-0.12665 -0.25082,0 -0.4639,0.0385 -0.64029,0.11501 -0.17604,0.0762 -0.31962,0.18062 -0.42933,0.31362 -0.11007,0.13264 -0.1905,0.2921 -0.24165,0.47801 -0.0508,0.18662 -0.0766,0.38947 -0.0766,0.60854 0,0.17357 0.0131,0.33267 0.0385,0.47872 0.0258,0.14499 0.0808,0.28293 0.1651,0.41275 0.0843,0.13018 0.20566,0.25259 0.36406,0.36759 0.15805,0.11466 0.3676,0.22578 0.6283,0.33267 0.097,0.0409 0.17886,0.0804 0.24518,0.11854 0.0667,0.0385 0.11924,0.0832 0.15734,0.13441 0.0385,0.0504 0.0653,0.11183 0.0808,0.18344 0.0148,0.0713 0.0226,0.16051 0.0226,0.26741 0,0.0765 -0.004,0.1531 -0.0109,0.23001 -0.008,0.0765 -0.0226,0.14322 -0.0459,0.19896 -0.0226,0.0564 -0.0554,0.10196 -0.0981,0.13794 -0.0434,0.0356 -0.10266,0.0533 -0.1785,0.0533 -0.13159,0 -0.22119,-0.0487 -0.26917,-0.14535 -0.048,-0.0974 -0.0773,-0.24306 -0.0871,-0.43709 l -1.05022,0.19897 c 0,0.18944 0.0258,0.36759 0.0766,0.53446 0.0512,0.16757 0.13158,0.31397 0.24165,0.43991 0.10971,0.12665 0.25294,0.22543 0.42933,0.29775 0.17603,0.0716 0.38664,0.10795 0.63218,0.10795 0.27058,0 0.49565,-0.0381 0.67451,-0.11466 0.17921,-0.0772 0.32103,-0.1852 0.4258,-0.32596 0.10478,-0.14041 0.17851,-0.3108 0.22225,-0.51012 0.0434,-0.19897 0.0649,-0.42157 0.0649,-0.6671 0,-0.20426 -0.0113,-0.38665 -0.0346,-0.54751 m 2.90936,2.11949 v -0.99695 h -1.40335 v -1.21074 h 1.22696 v -0.99695 h -1.22696 v -1.13418 h 1.40335 v -0.9966 h -2.44546 v 5.33542 z m 2.51601,-1.04282 0.4886,-1.94239 h 0.0617 v 2.98521 h 1.04246 v -5.33542 h -0.97367 l -0.52105,1.40265 -0.3683,1.08126 h -0.0459 l -0.36019,-1.05833 -0.52916,-1.42558 h -0.97332 v 5.33542 h 1.04281 v -3.00779 h 0.0691 l 0.496,1.96497 z m 3.30976,-2.23837 h -0.17815 v -1.13857 h 0.15522 c 0.16863,0 0.29139,0.0346 0.36795,0.10371 0.0769,0.0688 0.11535,0.22155 0.11535,0.49812 0,0.35807 -0.15381,0.53658 -0.46037,0.53658 m 0.49071,1.88912 c -0.0102,0.0871 -0.0317,0.1644 -0.0653,0.23072 -0.0332,0.067 -0.0794,0.11959 -0.13829,0.15875 -0.0582,0.0378 -0.13617,0.0572 -0.23354,0.0572 h -0.23177 v -1.36984 H 112.08 c 0.14817,0 0.25929,0.0437 0.33338,0.13089 0.0741,0.0878 0.11112,0.23918 0.11112,0.45508 0,0.10301 -0.005,0.24941 -0.0152,0.33725 m 0.38347,-1.43686 c 0.10231,-0.0356 0.1905,-0.0892 0.26459,-0.16087 0.0737,-0.072 0.1337,-0.15345 0.18027,-0.24518 0.0455,-0.0921 0.0801,-0.1905 0.10301,-0.29492 0.0233,-0.10513 0.0346,-0.21131 0.0346,-0.31856 0,-0.49036 -0.11889,-0.86113 -0.35631,-1.1116 -0.23777,-0.25012 -0.59443,-0.37536 -1.06997,-0.37536 h -1.20297 v 5.33542 h 1.18039 c 0.4953,0 0.86889,-0.13441 1.11936,-0.40252 0.25012,-0.26812 0.37536,-0.68898 0.37536,-1.26118 0,-0.12242 -0.01,-0.24272 -0.0307,-0.36054 -0.0205,-0.11713 -0.055,-0.22613 -0.10337,-0.32526 -0.0487,-0.0998 -0.11253,-0.18804 -0.19155,-0.26459 -0.079,-0.0769 -0.18027,-0.13546 -0.30269,-0.17639 z m 3.44417,2.82893 v -0.99695 h -1.31833 v -4.33847 h -1.0421 v 5.33542 z m 1.06927,-3.38844 -0.44908,-1.94698 h -1.11055 l 1.04246,3.16583 v 2.16959 h 1.04246 v -2.16959 l 1.0347,-3.16583 h -1.10314 l -0.41875,1.94698 z"
         style="fill:#000000;fill-opacity:1;fill-rule:nonzero;stroke:none;stroke-width:0.35277778"
         id="path50"
         inkscape:connector-curvature="0" />
      <g
         style="fill:#ff2734;fill-opacity:1"
         id="g419">
        <path
           inkscape:connector-curvature="0"
           id="path54"
           style="fill:#ff2734;fill-opacity:1;fill-rule:nonzero;stroke:none;stroke-width:0.35277778"
           d="m 67.61821,169.21805 c -0.14393,0 -0.2607,0.11818 -0.2607,0.26423 0,0.1457 0.11677,0.26388 0.2607,0.26388 0.14358,0 0.2607,-0.11818 0.2607,-0.26388 0,-0.14605 -0.11712,-0.26423 -0.2607,-0.26423" />
        <path
           inkscape:connector-curvature="0"
           id="path58"
           style="fill:#ff2734;fill-opacity:1;fill-rule:nonzero;stroke:none;stroke-width:0.35277778"
           d="m 67.8678,170.9746 -0.10689,-0.84102 h -0.28434 l -0.10689,0.84102 H 66.8712 l 0.45756,-3.4611 h 0.57361 l 0.45967,3.4611 z m -1.10878,-2.31881 h -0.47061 v -0.52281 c 0,-0.0166 -0.002,-0.0353 -0.007,-0.0579 -0.005,-0.0222 -0.0123,-0.0423 -0.0236,-0.061 -0.0113,-0.0187 -0.0268,-0.0346 -0.0462,-0.0473 -0.019,-0.0127 -0.0444,-0.0194 -0.0759,-0.0194 -0.002,0 -0.004,3.6e-4 -0.007,7.1e-4 v -7.1e-4 c -0.0317,0 -0.0568,0.007 -0.0762,0.0194 -0.019,0.0127 -0.0346,0.0286 -0.0459,0.0473 -0.0109,0.0187 -0.019,0.0388 -0.0233,0.061 -0.005,0.0226 -0.007,0.0413 -0.007,0.0579 v 2.26765 c 0,0.0325 0.008,0.0646 0.0236,0.0949 0.0155,0.0303 0.0533,0.0455 0.11148,0.0455 0.0451,0 0.0825,-0.0127 0.11112,-0.0371 0.0296,-0.0243 0.0441,-0.0568 0.0441,-0.096 v -0.65511 h -0.10372 v -0.41663 h 0.57432 v 1.04669 c 0,0.20109 -0.0529,0.35313 -0.1591,0.45685 -0.10583,0.10407 -0.25576,0.15628 -0.44944,0.15628 -0.21731,0 -0.375,-0.0515 -0.47413,-0.15416 -0.0988,-0.10302 -0.14887,-0.25683 -0.14887,-0.46214 v -2.24684 c 0,-0.19368 0.054,-0.3489 0.16157,-0.46567 0.10689,-0.11677 0.26211,-0.17498 0.46496,-0.17498 0.20285,0 0.35772,0.0582 0.46496,0.17498 0.10724,0.11677 0.16122,0.27199 0.16122,0.46567 z m 2.77671,0.58844 c 0,-0.19827 0.16122,-0.35878 0.35913,-0.35878 l -0.0885,-0.44274 c -0.18274,0.0759 -0.39264,-0.0109 -0.46849,-0.19402 -0.0755,-0.1831 0.0113,-0.393 0.19439,-0.46849 l -0.25118,-0.37571 c -0.1397,0.14005 -0.36724,0.14005 -0.50694,0 -0.14006,-0.14005 -0.14006,-0.36724 0,-0.5073 l -0.37571,-0.25082 c -0.0755,0.18309 -0.28575,0.26987 -0.46849,0.19438 -0.18309,-0.0759 -0.26988,-0.2861 -0.19403,-0.46884 l -0.44273,-0.0882 c 0,0.19791 -0.16052,0.35878 -0.35878,0.35878 -0.19791,0 -0.35877,-0.16087 -0.35877,-0.35878 l -0.44274,0.0882 c 0.0755,0.18309 -0.0113,0.39299 -0.19438,0.46849 -0.18239,0.0758 -0.39264,-0.0109 -0.46814,-0.19403 l -0.37606,0.25118 c 0.14041,0.1397 0.14041,0.36689 0,0.50694 -0.1397,0.14005 -0.36724,0.14005 -0.50694,0 l -0.25083,0.37571 c 0.1831,0.0755 0.27023,0.28539 0.19403,0.46813 -0.0755,0.18345 -0.28575,0.27023 -0.46849,0.19438 l -0.0878,0.44274 c 0.19791,0 0.35842,0.16051 0.35842,0.35878 0,0.1979 -0.16051,0.35842 -0.35842,0.35842 l 0.0878,0.44309 c 0.18274,-0.0755 0.393,0.0113 0.46849,0.19438 0.0762,0.18238 -0.0109,0.39264 -0.19403,0.46849 l 0.25083,0.37535 c 0.14041,-0.14005 0.36724,-0.14005 0.50694,0 0.14041,0.14005 0.14041,0.36724 0,0.5073 l 0.37606,0.25047 c 0.0755,-0.18274 0.28575,-0.26988 0.46814,-0.19368 0.18309,0.0755 0.26987,0.28575 0.19438,0.46814 l 0.44274,0.0882 c 0,-0.19791 0.16086,-0.35842 0.35877,-0.35842 0.19826,0 0.35878,0.16051 0.35878,0.35842 l 0.44273,-0.0882 c -0.0759,-0.18274 0.0109,-0.39264 0.19403,-0.46814 0.18274,-0.0762 0.39299,0.0109 0.46849,0.19368 l 0.37571,-0.25047 c -0.14006,-0.14006 -0.14006,-0.36725 0,-0.5073 0.1397,-0.14005 0.36724,-0.14005 0.50694,3.5e-4 l 0.25118,-0.37606 c -0.1831,-0.0755 -0.27059,-0.28575 -0.19439,-0.46813 0.0759,-0.18309 0.28575,-0.27023 0.46885,-0.19438 l 0.0882,-0.44309 c -0.19791,0 -0.35913,-0.16052 -0.35913,-0.35842" />
      </g>
    </g>
  </g>
</svg>
